REM DIRINDEX 1\2\3,1\2\4,1\2\5,1\2\6
REM DIRNAME folder01,folder02,folder03,folder04,folder05,folder06
TITLE ""
FILE "142 142.mp3" MP3
  TRACK 01 AUDIO
    TITLE "0:"
    INDEX 01 00:00:00
  TRACK 02 AUDIO
    TITLE "3:cjc157_5314"
    INDEX 01 00:00:07
  TRACK 03 AUDIO
    TITLE "0:"
    INDEX 01 00:01:28
  TRACK 04 AUDIO
    TITLE "4:cjc157_5315"
    INDEX 01 00:02:04
  TRACK 05 AUDIO
    TITLE "0:"
    INDEX 01 00:03:29
  TRACK 06 AUDIO
    TITLE "5:cjc157_5316"
    INDEX 01 00:03:72
  TRACK 07 AUDIO
    TITLE "0:"
    INDEX 01 00:07:03
  TRACK 08 AUDIO
    TITLE "5:cjc157_5317"
    INDEX 01 00:07:51
  TRACK 09 AUDIO
    TITLE "0:"
    INDEX 01 00:09:71
  TRACK 10 AUDIO
    TITLE "3:cjc157_5318"
    INDEX 01 00:10:41
  TRACK 11 AUDIO
    TITLE "0:"
    INDEX 01 00:11:56
  TRACK 12 AUDIO
    TITLE "4:cjc157_5319"
    INDEX 01 00:12:28
  TRACK 13 AUDIO
    TITLE "0:"
    INDEX 01 00:13:47
  TRACK 14 AUDIO
    TITLE "5:cjc157_5320"
    INDEX 01 00:14:13
  TRACK 15 AUDIO
    TITLE "0:"
    INDEX 01 00:16:30
  TRACK 16 AUDIO
    TITLE "3:cjc157_5321"
    INDEX 01 00:17:02
  TRACK 17 AUDIO
    TITLE "0:"
    INDEX 01 00:18:42
  TRACK 18 AUDIO
    TITLE "4:cjc157_5322"
    INDEX 01 00:19:16
  TRACK 19 AUDIO
    TITLE "0:"
    INDEX 01 00:20:41
  TRACK 20 AUDIO
    TITLE "5:cjc157_5323"
    INDEX 01 00:21:17
  TRACK 21 AUDIO
    TITLE "0:"
    INDEX 01 00:23:57
  TRACK 22 AUDIO
    TITLE "5:cjc157_5324"
    INDEX 01 00:24:25
  TRACK 23 AUDIO
    TITLE "0:"
    INDEX 01 00:26:40
  TRACK 24 AUDIO
    TITLE "3:cjc157_5325"
    INDEX 01 00:27:12
  TRACK 25 AUDIO
    TITLE "0:"
    INDEX 01 00:28:74
  TRACK 26 AUDIO
    TITLE "4:cjc157_5326"
    INDEX 01 00:29:46
  TRACK 27 AUDIO
    TITLE "0:"
    INDEX 01 00:30:71
  TRACK 28 AUDIO
    TITLE "5:cjc157_5327"
    INDEX 01 00:31:43
  TRACK 29 AUDIO
    TITLE "0:"
    INDEX 01 00:34:32
  TRACK 30 AUDIO
    TITLE "5:cjc157_5328"
    INDEX 01 00:35:04
  TRACK 31 AUDIO
    TITLE "0:"
    INDEX 01 00:37:71
  TRACK 32 AUDIO
    TITLE "3:cjc157_5329"
    INDEX 01 00:38:43
  TRACK 33 AUDIO
    TITLE "0:"
    INDEX 01 00:39:54
  TRACK 34 AUDIO
    TITLE "4:cjc157_5330"
    INDEX 01 00:40:23
  TRACK 35 AUDIO
    TITLE "0:"
    INDEX 01 00:41:38
  TRACK 36 AUDIO
    TITLE "5:cjc157_5331"
    INDEX 01 00:42:12
  TRACK 37 AUDIO
    TITLE "0:"
    INDEX 01 00:43:72
  TRACK 38 AUDIO
    TITLE "3:cjc157_5332"
    INDEX 01 00:44:50
  TRACK 39 AUDIO
    TITLE "0:"
    INDEX 01 00:46:02
  TRACK 40 AUDIO
    TITLE "4:cjc157_5333"
    INDEX 01 00:46:49
  TRACK 41 AUDIO
    TITLE "0:"
    INDEX 01 00:47:72
  TRACK 42 AUDIO
    TITLE "5:cjc157_5334"
    INDEX 01 00:48:44
  TRACK 43 AUDIO
    TITLE "0:"
    INDEX 01 00:50:39
  TRACK 44 AUDIO
    TITLE "5:cjc157_5335"
    INDEX 01 00:51:11
  TRACK 45 AUDIO
    TITLE "0:"
    INDEX 01 00:53:19
  TRACK 46 AUDIO
    TITLE "3:cjc157_5336"
    INDEX 01 00:53:62
  TRACK 47 AUDIO
    TITLE "0:"
    INDEX 01 00:55:03
  TRACK 48 AUDIO
    TITLE "4:cjc157_5337"
    INDEX 01 00:55:44
  TRACK 49 AUDIO
    TITLE "0:"
    INDEX 01 00:56:49
  TRACK 50 AUDIO
    TITLE "5:cjc157_5338"
    INDEX 01 00:57:25
  TRACK 51 AUDIO
    TITLE "0:"
    INDEX 01 00:59:55
  TRACK 52 AUDIO
    TITLE "5:cjc157_5339"
    INDEX 01 01:00:27
  TRACK 53 AUDIO
    TITLE "0:"
    INDEX 01 01:03:35
  TRACK 54 AUDIO
    TITLE "3:cjc157_5340"
    INDEX 01 01:04:01
  TRACK 55 AUDIO
    TITLE "0:"
    INDEX 01 01:05:30
  TRACK 56 AUDIO
    TITLE "4:cjc157_5341"
    INDEX 01 01:05:73
  TRACK 57 AUDIO
    TITLE "0:"
    INDEX 01 01:07:12
  TRACK 58 AUDIO
    TITLE "5:cjc157_5342"
    INDEX 01 01:07:59
  TRACK 59 AUDIO
    TITLE "0:"
    INDEX 01 01:10:02
  TRACK 60 AUDIO
    TITLE "5:cjc157_5343"
    INDEX 01 01:10:47
  TRACK 61 AUDIO
    TITLE "0:"
    INDEX 01 01:13:73
  TRACK 62 AUDIO
    TITLE "3:cjc157_5344"
    INDEX 01 01:14:45
  TRACK 63 AUDIO
    TITLE "0:"
    INDEX 01 01:16:07
  TRACK 64 AUDIO
    TITLE "4:cjc157_5345"
    INDEX 01 01:16:52
  TRACK 65 AUDIO
    TITLE "0:"
    INDEX 01 01:17:63
  TRACK 66 AUDIO
    TITLE "5:cjc157_5346"
    INDEX 01 01:18:35
  TRACK 67 AUDIO
    TITLE "0:"
    INDEX 01 01:20:48
  TRACK 68 AUDIO
    TITLE "3:cjc157_5347"
    INDEX 01 01:21:23
  TRACK 69 AUDIO
    TITLE "0:"
    INDEX 01 01:22:68
  TRACK 70 AUDIO
    TITLE "4:cjc157_5348"
    INDEX 01 01:23:38
  TRACK 71 AUDIO
    TITLE "0:"
    INDEX 01 01:24:65
  TRACK 72 AUDIO
    TITLE "5:cjc157_5349"
    INDEX 01 01:25:37
  TRACK 73 AUDIO
    TITLE "0:"
    INDEX 01 01:28:18
